<svg width="11" height="17" viewBox="0 0 11 17" fill="none" xmlns="http://www.w3.org/2000/svg">
<path d="M1.03683 7.84969L8.45371 0.432945C8.62525 0.261266 8.85425 0.166687 9.09842 0.166687C9.34259 0.166687 9.57159 0.261266 9.74313 0.432945L10.2893 0.979011C10.6447 1.33483 10.6447 1.91315 10.2893 2.26843L4.0612 8.49656L10.2962 14.7316C10.4678 14.9033 10.5625 15.1321 10.5625 15.3762C10.5625 15.6205 10.4678 15.8494 10.2962 16.0212L9.75004 16.5671C9.57836 16.7388 9.3495 16.8334 9.10533 16.8334C8.86116 16.8334 8.63216 16.7388 8.46062 16.5671L1.03683 9.14358C0.864884 8.97136 0.770441 8.74141 0.770983 8.49697C0.770441 8.25158 0.864884 8.02177 1.03683 7.84969Z" fill="#B1B1B1"/>
</svg>
